<svg width="97" height="97" viewBox="0 0 97 97" fill="none" xmlns="http://www.w3.org/2000/svg">
<path fill-rule="evenodd" clip-rule="evenodd" d="M32.3218 6.79001C27.0145 6.78993 21.9138 8.84731 18.0918 12.5297C14.2699 16.2121 12.0243 21.2328 11.8271 26.5364C4.78764 32.0447 0 39.3404 0 49.7333C0 57.7011 2.89614 63.0777 7.15721 68.1217C7.31438 72.8833 8.95638 77.4767 11.8534 81.2588C14.7504 85.041 18.7575 87.8228 23.3138 89.2148C27.8701 90.6068 32.7477 90.5394 37.2638 89.0221C41.7799 87.5047 45.7086 84.6133 48.5 80.7525C51.2905 84.6161 55.2196 87.5101 59.737 89.0293C64.2543 90.5484 69.1337 90.6166 73.6918 89.2243C78.2498 87.832 82.2583 85.0489 85.1557 81.2648C88.0531 77.4807 89.6944 72.8851 89.8497 68.1217C94.1108 63.0777 97 57.7011 97 49.7333C97 39.3404 92.2054 32.0447 85.166 26.5434C85.0092 22.3402 83.5638 18.2869 81.0258 14.9329C78.4878 11.5789 74.9799 9.08632 70.9776 7.79306C66.9753 6.4998 62.6721 6.46839 58.6514 7.70309C54.6306 8.93779 51.0867 11.3789 48.5 14.6955C46.5824 12.2339 44.1285 10.2422 41.3249 8.87227C38.5214 7.50231 35.4422 6.79015 32.3218 6.79001ZM20.4739 27.2986C20.4739 25.7427 20.7804 24.202 21.3758 22.7646C21.9712 21.3272 22.8439 20.0211 23.9441 18.9209C25.0443 17.8207 26.3504 16.948 27.7878 16.3526C29.2253 15.7572 30.7659 15.4507 32.3218 15.4507C33.8777 15.4507 35.4183 15.7572 36.8558 16.3526C38.2932 16.948 39.5993 17.8207 40.6995 18.9209C41.7997 20.0211 42.6724 21.3272 43.2678 22.7646C43.8632 24.202 44.1696 25.7427 44.1696 27.2986V40.6153C44.0588 41.9317 43.3036 44.6893 41.5784 47.2044C39.8601 49.6987 37.4836 51.5694 34.2202 51.9366C33.0782 52.0652 32.034 52.6422 31.3174 53.5408C30.6008 54.4393 30.2705 55.5856 30.3991 56.7277C30.5277 57.8697 31.1048 58.9139 32.0033 59.6305C32.9018 60.3471 34.0482 60.6774 35.1902 60.5488C38.4559 60.1891 41.561 58.9432 44.1696 56.9459V67.3665C44.1696 71.128 42.6754 74.7355 40.0156 77.3953C37.3558 80.055 33.7484 81.5493 29.9869 81.5493C26.2253 81.5493 22.6179 80.055 19.9581 77.3953C17.2983 74.7355 15.8041 71.128 15.8041 67.3665V67.2349C16.0466 65.9392 16.5454 64.4288 17.2175 63.0639C17.9381 61.595 18.6725 60.6804 19.1714 60.2924C19.6181 59.9399 19.991 59.5027 20.2688 59.006C20.5467 58.5093 20.7239 57.9628 20.7905 57.3976C20.8571 56.8324 20.8117 56.2596 20.6569 55.7119C20.5022 55.1643 20.241 54.6524 19.8885 54.2057C19.5359 53.7589 19.0988 53.386 18.6021 53.1082C18.1054 52.8304 17.5588 52.6531 16.9936 52.5865C16.4284 52.5199 15.8556 52.5653 15.3079 52.7201C14.7603 52.8749 14.2485 53.136 13.8017 53.4886C12.4271 54.6301 11.2638 56.0044 10.3651 57.5487C9.17759 55.118 8.5907 52.4378 8.65379 49.7333C8.65379 44.0796 10.5799 39.7561 14.1274 36.0701C14.8575 37.3263 15.7368 38.4895 16.7464 39.5344C18.9427 41.8209 21.5964 43.359 23.7719 43.8509C24.3335 43.9987 24.919 44.032 25.4937 43.9489C26.0684 43.8658 26.6205 43.668 27.1172 43.3672C27.6138 43.0664 28.045 42.6688 28.3849 42.198C28.7248 41.7272 28.9665 41.1928 29.0957 40.6267C29.2249 40.0606 29.239 39.4743 29.137 38.9027C29.035 38.331 28.8191 37.7857 28.5021 37.2992C28.1852 36.8127 27.7736 36.3949 27.2918 36.0707C26.8101 35.7465 26.2681 35.5224 25.6981 35.4119L25.4279 35.308C25.1952 35.2028 24.9685 35.0849 24.7489 34.9547C23.5782 34.2314 22.5858 33.2534 21.8456 32.0933C21.1054 30.9333 20.6365 29.6211 20.4739 28.2547V27.2986ZM61.8167 60.5488C58.5486 60.1904 55.4409 58.9444 52.8304 56.9459V67.3665C52.8304 71.128 54.3246 74.7355 56.9844 77.3953C59.6442 80.055 63.2516 81.5493 67.0131 81.5493C70.7746 81.5493 74.3821 80.055 77.0419 77.3953C79.7017 74.7355 81.1959 71.128 81.1959 67.3665V67.2349C80.9042 65.7901 80.4292 64.3884 79.7825 63.0639C79.0619 61.595 78.3275 60.6804 77.8286 60.2924C77.3819 59.9399 77.009 59.5027 76.7311 59.006C76.4533 58.5093 76.2761 57.9628 76.2095 57.3976C76.1429 56.8324 76.1883 56.2596 76.3431 55.7119C76.4978 55.1643 76.759 54.6524 77.1115 54.2057C77.4641 53.7589 77.9012 53.386 78.3979 53.1082C78.8946 52.8304 79.4412 52.6531 80.0064 52.5865C80.5716 52.5199 81.1444 52.5653 81.6921 52.7201C82.2397 52.8749 82.7515 53.136 83.1983 53.4886C84.5909 54.5971 85.7341 56.0521 86.6349 57.5487C87.7781 55.2484 88.3462 52.7888 88.3462 49.7333C88.3462 44.0796 86.4201 39.7561 82.8726 36.0701C82.1425 37.3263 81.2632 38.4895 80.2536 39.5344C78.0573 41.8209 75.4036 43.359 73.2281 43.8509C72.6665 43.9987 72.081 44.032 71.5063 43.9489C70.9316 43.8658 70.3795 43.668 69.8828 43.3672C69.3861 43.0664 68.955 42.6688 68.6151 42.198C68.2752 41.7272 68.0335 41.1928 67.9043 40.6267C67.7751 40.0606 67.761 39.4743 67.863 38.9027C67.965 38.331 68.1809 37.7857 68.4979 37.2992C68.8148 36.8127 69.2264 36.3949 69.7081 36.0707C70.1899 35.7465 70.7319 35.5224 71.3019 35.4119L71.5721 35.308C71.8048 35.2028 72.0315 35.0849 72.2511 34.9547C73.421 34.2321 74.4129 33.2552 75.153 32.0964C75.8931 30.9376 76.3625 29.6269 76.5261 28.2617V27.2916C76.5261 24.1494 75.2778 21.1359 73.0559 18.914C70.834 16.692 67.8205 15.4438 64.6782 15.4438C61.536 15.4438 58.5224 16.692 56.3005 18.914C54.0786 21.1359 52.8304 24.1494 52.8304 27.2916V40.6153C52.9412 41.9317 53.6964 44.6893 55.4216 47.2044C57.1399 49.6987 59.5095 51.5694 62.7798 51.9366C63.3453 52.0003 63.8927 52.1747 64.3907 52.45C64.8888 52.7252 65.3278 53.0959 65.6826 53.5408C66.0374 53.9856 66.3012 54.4961 66.4587 55.0429C66.6163 55.5897 66.6646 56.1622 66.6009 56.7277C66.5372 57.2932 66.3628 57.8406 66.0875 58.3386C65.8123 58.8367 65.4416 59.2757 64.9967 59.6305C64.5518 59.9853 64.0414 60.2491 63.4946 60.4066C62.9478 60.5642 62.3753 60.6125 61.8098 60.5488" fill="#64E682"/>
</svg>
