<svg width="138" height="138" viewBox="0 0 138 138" fill="none" xmlns="http://www.w3.org/2000/svg">
<path d="M114.885 52.1122L119.198 52.1237V52.1122H114.885ZM23.115 52.1122H18.8025V52.1237L23.115 52.1122ZM109.825 61.295L106.53 64.0838L107.013 64.6587L107.669 65.0325L109.825 61.295ZM108.261 54.0213C107.338 53.3442 106.185 53.0613 105.053 53.2349C103.922 53.4085 102.906 54.0244 102.229 54.947C101.552 55.8696 101.269 57.0234 101.443 58.1546C101.617 59.2858 102.232 60.3016 103.155 60.9787L108.261 54.0213ZM34.845 60.9787C35.3018 60.6435 35.6882 60.2215 35.9819 59.737C36.2757 59.2524 36.4711 58.7147 36.5571 58.1546C36.6431 57.5945 36.6179 57.023 36.4829 56.4726C36.348 55.9222 36.106 55.4038 35.7708 54.947C35.4355 54.4902 35.0135 54.1038 34.529 53.8101C34.0444 53.5163 33.5067 53.3209 32.9466 53.2349C32.3865 53.1489 31.815 53.1741 31.2646 53.3091C30.7142 53.444 30.1958 53.686 29.739 54.0213L34.845 60.9787ZM69 32.522C64.561 32.522 62.0425 32.7577 60.053 33.005C58.098 33.2465 57.109 33.419 55.2345 33.419V42.044C57.7645 42.044 59.4033 41.7738 61.0995 41.5668C62.767 41.3598 64.929 41.147 69 41.147V32.522ZM69 41.147C73.071 41.147 75.2388 41.3598 76.8948 41.5668C78.5968 41.7738 80.2298 42.044 82.7655 42.044V33.419C80.891 33.419 79.902 33.2465 77.947 33.005C74.9783 32.6503 71.9897 32.489 69 32.522V41.147ZM82.7655 42.0498C83.9903 42.0498 85.1345 41.699 85.9568 41.3942C86.8538 41.0607 87.7795 40.6238 88.6708 40.1638C90.4245 39.261 92.46 38.0535 94.323 36.9783C96.278 35.857 98.118 34.8335 99.7683 34.086C101.539 33.281 102.551 33.0625 102.954 33.0625V24.4375C100.608 24.4375 98.1813 25.3402 96.2205 26.22C94.1041 27.2168 92.0357 28.3124 90.022 29.5033C87.9865 30.6763 86.2385 31.717 84.7205 32.4933C83.9768 32.8766 83.3903 33.1468 82.961 33.304C82.4608 33.488 82.4608 33.419 82.7655 33.419V42.0498ZM102.954 33.0625C104.938 33.0625 106.835 33.6547 108.169 34.8047C109.388 35.8512 110.573 37.7373 110.573 41.331H119.198C119.198 35.581 117.174 31.1765 113.798 28.267C110.544 25.4667 106.484 24.4375 102.954 24.4375V33.0625ZM110.573 41.331V52.1122H119.198V41.331H110.573ZM55.2345 33.4248C55.5393 33.4248 55.5393 33.488 55.039 33.3098C54.4378 33.0727 53.8504 32.802 53.2795 32.499C51.7615 31.717 50.0135 30.6762 47.978 29.509C46.023 28.382 43.861 27.163 41.7795 26.2257C39.8245 25.3402 37.3923 24.4375 35.0463 24.4375V33.0625C35.4488 33.0625 36.4608 33.2867 38.2318 34.086C39.882 34.8335 41.7278 35.857 43.677 36.9783C45.54 38.0535 47.5755 39.261 49.3293 40.1638C50.2205 40.6238 51.1463 41.0607 52.0433 41.3942C52.8655 41.699 54.0098 42.0498 55.2345 42.0498V33.4248ZM35.0463 24.4375C31.5157 24.4375 27.4563 25.4667 24.2018 28.267C20.8265 31.1707 18.8025 35.581 18.8025 41.3252H27.4275C27.4275 37.7315 28.612 35.8512 29.831 34.8047C31.165 33.6547 33.0682 33.0625 35.0463 33.0625V24.4375ZM18.8025 41.331V52.1122H27.4275V41.3252L18.8025 41.331ZM69 119.312C77.2283 119.312 89.355 117.674 99.59 112.964C109.848 108.249 119.198 99.8947 119.198 86.25H110.573C110.573 95.0647 104.782 101.085 95.9905 105.133C87.1988 109.181 76.3715 110.688 69 110.688V119.312ZM113.114 58.512C111.674 56.8354 110.046 55.3248 108.261 54.0213L103.155 60.9787C104.527 62.0022 105.652 63.0315 106.53 64.078L113.114 58.512ZM110.573 52.095C110.573 53.2335 110.337 55.6025 109.779 57.2412C109.463 58.1555 109.285 58.1325 109.607 57.8737C109.94 57.62 110.334 57.4575 110.749 57.402C111.164 57.3466 111.587 57.4002 111.976 57.5575L107.669 65.0325C108.704 65.6305 109.98 66.0675 111.406 65.9928C112.873 65.918 114.086 65.3372 115.006 64.6012C116.656 63.2787 117.49 61.3468 117.938 60.0243C118.904 57.201 119.192 53.8142 119.203 52.1237L110.573 52.095ZM69 110.688C61.6285 110.688 50.8128 109.181 42.0095 105.133C33.212 101.085 27.4275 95.0647 27.4275 86.25H18.8025C18.8025 99.8947 28.152 108.249 38.41 112.964C48.645 117.679 60.7718 119.312 69 119.312V110.688ZM27.4275 86.25C27.4275 81.719 27.0998 77.9872 27.5368 74.014C27.9393 70.3052 28.9915 67.0105 31.4698 64.0838L24.886 58.5063C20.976 63.135 19.4925 68.241 18.9635 73.0767C18.4633 77.6595 18.8025 82.6218 18.8025 86.25H27.4275ZM31.4698 64.0838C32.4691 62.9199 33.602 61.8777 34.845 60.9787L29.739 54.0213C27.8492 55.4166 26.2315 56.9116 24.886 58.5063L31.4698 64.0838ZM18.8025 52.1237C18.8082 53.8142 19.0958 57.201 20.0618 60.0243C20.5103 61.3468 21.344 63.2787 22.9943 64.6012C23.9143 65.3372 25.1275 65.918 26.588 65.9928C28.0198 66.0618 29.2905 65.6305 30.3313 65.0325L26.0245 57.5575C26.4121 57.4012 26.8336 57.3482 27.2479 57.4036C27.6621 57.4591 28.0549 57.6211 28.3877 57.8737C28.7155 58.1325 28.5373 58.1555 28.221 57.2412C27.7213 55.5704 27.4543 53.8387 27.4275 52.095L18.8025 52.1237Z" fill="#BF65E0"/>
<path d="M73.7495 92C73.7495 92.9947 71.6738 93.7997 69.115 93.7997C66.5563 93.7997 64.4748 92.9947 64.4748 92C64.4748 91.0052 66.5505 90.206 69.115 90.206C71.6738 90.206 73.7495 91.011 73.7495 92ZM89.125 78.1655C89.125 80.6437 87.8772 82.6562 86.342 82.6562C84.8067 82.6562 83.559 80.6437 83.559 78.1655C83.559 75.6872 84.8067 73.6747 86.342 73.6747C87.8772 73.6747 89.125 75.693 89.125 78.1655ZM54.625 78.1655C54.625 80.6437 53.3772 82.6562 51.842 82.6562C50.3067 82.6562 49.059 80.6437 49.059 78.1655C49.059 75.6872 50.3067 73.6747 51.842 73.6747C53.3772 73.6747 54.625 75.693 54.625 78.1655Z" stroke="#BF65E0" stroke-width="1.5"/>
<path d="M126.5 88.9467C123.723 87.147 111.665 82.6562 107.025 82.6562M117.225 103.322C114.442 101.522 107.95 97.0312 103.31 97.0312M11.5 88.9467C14.283 87.147 26.335 82.6562 30.9753 82.6562M20.7747 103.322C23.5577 101.522 30.0495 97.0312 34.6897 97.0312" stroke="#BF65E0" stroke-width="1.5" stroke-linecap="round"/>
</svg>
