<svg width="109" height="109" viewBox="0 0 109 109" fill="none" xmlns="http://www.w3.org/2000/svg">
<path d="M68.125 45.4167L63.6469 44.6718C63.5388 45.3222 63.5736 45.9883 63.7488 46.6238C63.924 47.2594 64.2355 47.8491 64.6616 48.3522C65.0877 48.8552 65.6183 49.2595 66.2164 49.5368C66.8144 49.8142 67.4657 49.958 68.125 49.9583V45.4167ZM18.1667 45.4167V40.875C16.9621 40.875 15.807 41.3535 14.9552 42.2052C14.1035 43.057 13.625 44.2121 13.625 45.4167H18.1667ZM27.25 95.375H78.8433V86.2917H27.25V95.375ZM84.2933 40.875H68.125V49.9583H84.2933V40.875ZM72.6076 46.1615L76.2637 24.2025L67.3075 22.7083L63.6469 44.6718L72.6076 46.1615ZM67.3075 13.625H66.3356V22.7083H67.3075V13.625ZM51.2164 21.7137L39.7986 38.854L47.356 43.8952L58.7828 26.755L51.2164 21.7137ZM36.0154 40.875H18.1667V49.9583H36.0154V40.875ZM13.625 45.4167V81.75H22.7083V45.4167H13.625ZM92.2049 84.4205L97.6549 57.1705L88.7532 55.3902L83.3032 82.6402L92.2049 84.4205ZM39.7986 38.854C39.3837 39.4758 38.8173 39.9856 38.1581 40.3382C37.4989 40.6907 36.7629 40.8751 36.0154 40.875V49.9583C38.2584 49.9582 40.4666 49.4043 42.4442 48.3458C44.4217 47.2873 46.1073 45.757 47.3514 43.8907L39.7986 38.854ZM76.2637 24.2025C76.4806 22.9015 76.4117 21.5689 76.0615 20.2972C75.7114 19.0255 75.0886 17.8454 74.2362 16.8388C73.3839 15.8321 72.3226 15.0232 71.1261 14.4682C69.9295 13.9132 68.6265 13.6255 67.3075 13.625V22.7083L76.2637 24.2025ZM84.2933 49.9583C84.9654 49.9581 85.6291 50.107 86.2367 50.3943C86.8442 50.6816 87.3804 51.1001 87.8066 51.6197C88.2329 52.1393 88.5384 52.7471 88.7013 53.3991C88.8643 54.0511 88.885 54.7311 88.7532 55.3902L97.6549 57.1705C98.0499 55.1942 98.0016 53.1549 97.5134 51.1995C97.0252 49.2441 96.1093 47.4214 94.8316 45.8627C93.554 44.304 91.9465 43.0482 90.125 42.1857C88.3035 41.3232 86.3133 40.8755 84.2979 40.875L84.2933 49.9583ZM78.8433 95.375C81.9935 95.3752 85.0465 94.2838 87.4826 92.2865C89.9187 90.2893 91.5875 87.5096 92.2049 84.4205L83.3032 82.6402C83.0972 83.6709 82.5401 84.5982 81.7268 85.2641C80.9135 85.93 79.8944 86.2931 78.8433 86.2917V95.375ZM66.3356 13.625C63.3451 13.6251 60.4008 14.3634 57.7641 15.7744C55.1275 17.1854 52.8754 19.2256 51.2164 21.7137L58.7828 26.755C59.612 25.5105 60.7311 24.49 62.0495 23.784C63.3679 23.0781 64.8401 22.7086 66.3356 22.7083V13.625ZM27.25 86.2917C26.0455 86.2917 24.8903 85.8132 24.0386 84.9614C23.1868 84.1097 22.7083 82.9545 22.7083 81.75H13.625C13.625 85.3636 15.0605 88.8291 17.6157 91.3843C20.1709 93.9395 23.6364 95.375 27.25 95.375V86.2917Z" fill="#0D99FF"/>
<path d="M36.3333 45.4167V90.8333" stroke="#0D99FF" stroke-width="2"/>
</svg>
